# xmcd
#
# Track frame offsets:
#	150
#	15980
#	27442
#	40527
#	55665
#	73245
#	88212
#	103202
#	113752
#	131202
#	149262
#	166690
#	196172
#	218005
#	230027
#	241817
#	260247
#
# Disc length: 3671 seconds
#
# Revision: 0
# Processed by: cddbd v1.5.2PL0 Copyright (c) Steve Scherf et al.
# Submitted via: EasyCDDAExtractor 11.5.3.1
#
DISCID=ef0e5511
DTITLE=Various Artist - Newport Folk Festival: Best of the Blues 1959-68
DYEAR=2001
DGENRE=
TTITLE0=Mississippi John Hurt - Sliding Delta
TTITLE1=Mississippi John Hurt - Candy Man
TTITLE2=Mississippi John Hurt - Coffee Blues
TTITLE3=Mississippi John Hurt - Stagolee
TTITLE4=Mississippi John Hurt - Here I Am Lord Send Me
TTITLE5=Mississippi John Hurt - Pallet on Your Floor
TTITLE6=Skip James - Devil Got My Woman
TTITLE7=Skip James - Hard Time Killing Floor Blues
TTITLE8=Son House - Preaching Blues
TTITLE9=Son House - Death Letter Blues
TTITLE10=Son House - Empire State Express
TTITLE11=Son House - Son Blues
TTITLE12=Bukka White - Aberdeen Mississippi Blues
TTITLE13=Fred McDowell - Louise
TTITLE14=Fred McDowell - If the River Was Whiskey
TTITLE15=Muddy Waters - Walkin' Blues
TTITLE16=Muddy Waters - I Can't Be Satisfied
EXTD=
EXTT0=
EXTT1=
EXTT2=
EXTT3=
EXTT4=
EXTT5=
EXTT6=
EXTT7=
EXTT8=
EXTT9=
EXTT10=
EXTT11=
EXTT12=
EXTT13=
EXTT14=
EXTT15=
EXTT16=
PLAYORDER=
